# xmcd CD database file
#
# Track frame offsets:
#	150
#	13171
#	42999
#	56472
#	69419
#	83262
#	101334
#	112057
#	123354
#	151594
#	165718
#	180093
#	193214
#
# Disc length: 2765 seconds
#
# Revision: 2
# Processed by: cddbd v1.5.2PL0 Copyright (c) Steve Scherf et al.
# Submitted via: CDex 1.51
#
DISCID=970acb0d
DTITLE=Dizzy Gillespie - Salt Peanuts  [CD 05-10]
DYEAR=1900
DGENRE=Jazz
TTITLE0=Hot Air
TTITLE1=It Don't Mean A Thing
TTITLE2=Just Blues  (One More Blues)
TTITLE3='Round About Midnight
TTITLE4=52nd Street Theme
TTITLE5=Bass-Ically Speaking
TTITLE6=I'm Beboppin' Too
TTITLE7=Leap Frog
TTITLE8=Let A Song Go Out Of You
TTITLE9=Cubana Bob
TTITLE10=Dizzy Boogie
TTITLE11=Ghost Of A Chance
TTITLE12=Stay On It
EXTD=
EXTT0=
EXTT1=
EXTT2=
EXTT3=
EXTT4=
EXTT5=
EXTT6=
EXTT7=
EXTT8=
EXTT9=
EXTT10=
EXTT11=
EXTT12=
PLAYORDER=
